<svg width="112" height="31" viewBox="0 0 112 31" fill="none" xmlns="http://www.w3.org/2000/svg">
<path d="M87.5288 4.53599L92.3321 8.39686L92.3161 13.681L96.2188 11.0035L99.9694 13.7645L108.392 0L87.5288 4.53599ZM94.5867 9.67408L93.2188 12.0741L93.2248 8.03477L105.75 1.74574L94.5867 9.67408Z" fill="#00A5EC"/>
<path d="M0 19.0679H2.15449V30.3541H0V19.0679Z" fill="#00A5EC"/>
<path d="M4.32324 30.3572V19.0803H5.04674L11.8224 26.1436V19.0803H13.9839V30.3572H13.1924L6.48774 23.3659V30.3572H4.32324Z" fill="#00A5EC"/>
<path d="M25.0531 19.0803V21.185H21.4506V30.3561H19.2851V21.185H15.6826V19.0803H25.0531Z" fill="#00A5EC"/>
<path d="M26.6318 30.3538V19.0842H34.5803V21.1889H28.7963V23.5889H33.1323V25.6874H28.7963V28.2501H34.5643V30.3569L26.6318 30.3538Z" fill="#00A5EC"/>
<path d="M43.2669 25.4372L45.9607 30.3561H43.483L40.8912 25.6939H38.9169V30.3561H36.7554V19.0803H41.4696C43.9934 19.0803 45.2549 20.1621 45.2543 22.3255C45.3252 23.0048 45.1651 23.6885 44.8018 24.2573C44.4386 24.826 43.8953 25.2436 43.2669 25.4372ZM38.9169 23.5892H41.948C42.8166 23.5725 43.2659 23.1603 43.2869 22.3495C43.2669 21.6066 42.8246 21.2226 41.968 21.1902H38.9169V23.5902V23.5892Z" fill="#00A5EC"/>
<path d="M47.0913 30.3572V19.0803H47.8088L54.5895 26.1436V19.0803H56.751V30.3572H55.9564L49.2518 23.3659V30.3572H47.0913Z" fill="#00A5EC"/>
<path fill-rule="evenodd" clip-rule="evenodd" d="M75.9209 17.7125C81.0975 16.9299 85.9809 15.0631 91.0224 13.3174C89.4613 14.6238 77.8032 18.037 75.9209 17.7125Z" fill="#666666"/>
<path fill-rule="evenodd" clip-rule="evenodd" d="M96.2137 11.0035L92.311 13.6811L94.5846 9.67725L96.2137 11.0035Z" fill="#666666"/>
<path d="M64.8468 19.4561C65.4261 19.7266 65.9513 20.1086 66.3949 20.582L64.9559 22.0877C64.7079 21.7854 64.3965 21.5468 64.0457 21.3905C63.695 21.2341 63.3143 21.1642 62.9335 21.1862C62.0699 21.1862 61.5165 21.3949 61.2773 21.8237C61.1595 21.9789 61.0955 22.171 61.0955 22.3689C61.0955 22.5669 61.1595 22.759 61.2773 22.9142C61.7448 23.3204 62.3258 23.558 62.9335 23.5914C63.825 23.6822 64.6805 24.0051 65.4212 24.5305C65.7999 24.8139 66.1018 25.1945 66.2977 25.6356C66.4935 26.0766 66.5767 26.5629 66.539 27.0474C66.5319 27.5064 66.4202 27.9571 66.2132 28.3622C66.0061 28.7674 65.7096 29.1154 65.3481 29.3775C64.5563 30.0267 63.5744 30.3719 62.5672 30.3552C61.7084 30.3825 60.853 30.2288 60.0525 29.9034C59.4065 29.6229 58.8189 29.2143 58.3223 28.7002L59.7583 27.2008C60.0788 27.5379 60.4607 27.8048 60.8815 27.9858C61.3024 28.1668 61.7537 28.2582 62.209 28.2547C63.1716 28.2547 63.769 28.046 64.0102 27.6171C64.127 27.426 64.189 27.2041 64.189 26.9775C64.189 26.7508 64.127 26.5289 64.0102 26.3378C63.77 25.9131 63.1746 25.6481 62.209 25.5479C61.3682 25.4561 60.5568 25.174 59.8313 24.7215C59.4638 24.4735 59.1686 24.1251 58.9781 23.7142C58.7875 23.3033 58.7088 22.8457 58.7506 22.3914C58.7433 21.9156 58.8521 21.4457 59.0669 21.0259C59.2817 20.606 59.5954 20.25 59.9784 19.9914C60.7091 19.4201 61.594 19.1039 62.5072 19.0877C63.3027 19.0489 64.0977 19.174 64.8468 19.4561V19.4561Z" fill="#666666"/>
<path d="M68.4746 30.3549V19.078H70.6391V23.5869H75.6786V19.0686H77.8461V30.3444L75.6786 30.3549V25.6926H70.6391V30.3549H68.4746V30.3549Z" fill="#666666"/>
<path d="M79.6016 30.3569L83.9246 19.0801H86.0891L90.4081 30.3496L88.1065 30.3601L87.457 28.6321H82.5536L81.9042 30.3601L79.6016 30.3569ZM85.0653 22.0863L83.4202 26.3729H86.6645L85.0653 22.0863Z" fill="#666666"/>
<path d="M94.2133 19.0801V28.2502H99.9813V30.3569H92.0498V19.0801H94.2133Z" fill="#666666"/>
<path d="M101.191 30.3569L105.52 19.0801H107.682L112 30.3496L109.698 30.3601L109.057 28.6289H104.153L103.505 30.3569H101.191ZM106.655 22.0863L105.011 26.3729H108.256L106.655 22.0863Z" fill="#666666"/>
</svg>
